<svg width="24" height="24" viewBox="0 0 24 24" fill="none" xmlns="http://www.w3.org/2000/svg">
<path fill-rule="evenodd" clip-rule="evenodd" d="M11.9627 1.91602C6.40308 1.91602 1.90869 6.53786 1.90869 12.2557C1.90869 16.8263 4.7884 20.6952 8.78332 22.0645C9.28279 22.1675 9.46574 21.842 9.46574 21.5683C9.46574 21.3286 9.44927 20.507 9.44927 19.6509C6.6525 20.2673 6.0701 18.4183 6.0701 18.4183C5.62064 17.22 4.95468 16.912 4.95468 16.912C4.0393 16.2786 5.02136 16.2786 5.02136 16.2786C6.03676 16.3471 6.56957 17.3399 6.56957 17.3399C7.46828 18.9147 8.91647 18.4698 9.49908 18.1958C9.58222 17.5282 9.84873 17.066 10.1317 16.8093C7.90107 16.5696 5.55417 15.6794 5.55417 11.7078C5.55417 10.578 5.95341 9.65361 6.58603 8.9347C6.48622 8.67798 6.13657 7.61643 6.68605 6.19563C6.68605 6.19563 7.53496 5.92168 9.44907 7.25698C10.2686 7.03064 11.1137 6.91551 11.9627 6.91454C12.8116 6.91454 13.6769 7.0345 14.4761 7.25698C16.3904 5.92168 17.2393 6.19563 17.2393 6.19563C17.7888 7.61643 17.4389 8.67798 17.3391 8.9347C17.9884 9.65361 18.3712 10.578 18.3712 11.7078C18.3712 15.6794 16.0243 16.5523 13.777 16.8093C14.1433 17.1345 14.4594 17.7507 14.4594 18.7265C14.4594 20.1131 14.4429 21.2259 14.4429 21.5681C14.4429 21.842 14.6261 22.1675 15.1253 22.0647C19.1203 20.695 22 16.8263 22 12.2557C22.0164 6.53786 17.5056 1.91602 11.9627 1.91602Z" fill="#6D7377"/>
</svg>
