<svg width="16" height="16" viewBox="0 0 16 16" fill="none" xmlns="http://www.w3.org/2000/svg">
<path d="M8.00016 1.33331C4.32683 1.33331 1.3335 4.32665 1.3335 7.99998C1.3335 11.6733 4.32683 14.6666 8.00016 14.6666C11.6735 14.6666 14.6668 11.6733 14.6668 7.99998C14.6668 4.32665 11.6735 1.33331 8.00016 1.33331ZM11.1868 6.46665L7.40683 10.2466C7.3135 10.34 7.18683 10.3933 7.0535 10.3933C6.92016 10.3933 6.7935 10.34 6.70016 10.2466L4.8135 8.35998C4.62016 8.16665 4.62016 7.84665 4.8135 7.65331C5.00683 7.45998 5.32683 7.45998 5.52016 7.65331L7.0535 9.18665L10.4802 5.75998C10.6735 5.56665 10.9935 5.56665 11.1868 5.75998C11.3802 5.95331 11.3802 6.26665 11.1868 6.46665Z" fill="white"/>
</svg>
