<svg width="32" height="32" viewBox="0 0 32 32" fill="none" xmlns="http://www.w3.org/2000/svg">
<path fill-rule="evenodd" clip-rule="evenodd" d="M16 30C23.732 30 30 23.732 30 16C30 8.26801 23.732 2 16 2C8.26801 2 2 8.26801 2 16C2 23.732 8.26801 30 16 30ZM21.6292 9.082C22.3454 8.76755 23.1112 9.40332 22.9866 10.2088L21.1418 22.1261C21.0297 22.8506 20.2585 23.2282 19.659 22.8523L14.314 19.5005C13.7569 19.1512 13.665 18.3421 14.1281 17.8646L18.9021 12.9426C19.073 12.7665 18.855 12.4821 18.655 12.6203L12.0228 17.2023C11.5325 17.541 10.9246 17.6335 10.3631 17.4547L7.42147 16.5179C6.8888 16.3483 6.85123 15.5703 7.36482 15.3448L21.6292 9.082Z" fill="white"/>
</svg>
