<svg width="18" height="18" viewBox="0 0 18 18" fill="none" xmlns="http://www.w3.org/2000/svg">
<path fill-rule="evenodd" clip-rule="evenodd" d="M8.99996 0.666687C9.34163 0.666687 9.62496 0.95002 9.62496 1.29169L9.62496 6.50002L8.37496 6.50002V1.29169C8.37496 0.95002 8.65829 0.666687 8.99996 0.666687ZM8.37496 6.50002H4.99996C2.33329 6.50002 0.666626 8.16669 0.666626 10.8334L0.666626 12.9917C0.666626 15.6667 2.33329 17.3334 4.99996 17.3334L12.9916 17.3334C15.6583 17.3334 17.325 15.6667 17.325 13L17.325 10.8334C17.3333 8.16669 15.6666 6.50002 13 6.50002H9.62496V10.2L11.35 8.47502C11.475 8.35002 11.6333 8.29169 11.7916 8.29169C11.95 8.29169 12.1083 8.35002 12.2333 8.47502C12.475 8.71669 12.475 9.11669 12.2333 9.35835L9.44163 12.15C9.19996 12.3917 8.79996 12.3917 8.55829 12.15L5.76663 9.35835C5.52496 9.11669 5.52496 8.71669 5.76663 8.47502C6.00829 8.23335 6.40829 8.23335 6.64996 8.47502L8.37496 10.2L8.37496 6.50002Z" fill="white"/>
</svg>
