<svg width="18" height="12" viewBox="0 0 18 12" fill="none" xmlns="http://www.w3.org/2000/svg">
<g clip-path="url(#clip0_30_1297)">
<path d="M18 0H0V12H18V0Z" fill="#B22234"/>
<path d="M0 1.09955H18H0ZM18 2.55704H0H18ZM0 4.01453H18H0ZM18 5.47202H0H18ZM0 6.92951H18H0ZM18 8.387H0H18Z" fill="black"/>
<path d="M0 1.09955H18M18 2.55704H0M0 4.01453H18M18 5.47202H0M0 6.92951H18M18 8.387H0M18 9.74982H0M18 11.2498H0" stroke="white" stroke-width="0.728745"/>
<path d="M7.2 0H0V5.10121H7.2V0Z" fill="#3C3B6E"/>
<path d="M0.600473 0.218811L0.771811 0.746136L0.323242 0.420231H0.877704L0.429135 0.746136L0.600473 0.218811Z" fill="white"/>
<path d="M0.600473 1.23901L0.771811 1.76634L0.323242 1.44043H0.877704L0.429135 1.76634L0.600473 1.23901Z" fill="white"/>
<path d="M0.600473 2.25928L0.771811 2.7866L0.323242 2.4607H0.877704L0.429135 2.7866L0.600473 2.25928Z" fill="white"/>
<path d="M0.600473 3.27954L0.771811 3.80687L0.323242 3.48096H0.877704L0.429135 3.80687L0.600473 3.27954Z" fill="white"/>
<path d="M0.600473 4.29974L0.771811 4.82707L0.323242 4.50116H0.877704L0.429135 4.82707L0.600473 4.29974Z" fill="white"/>
<path d="M1.20008 0.728882L1.37142 1.25621L0.922852 0.930302H1.47731L1.02874 1.25621L1.20008 0.728882Z" fill="white"/>
<path d="M1.20008 1.74921L1.37142 2.27653L0.922852 1.95063H1.47731L1.02874 2.27653L1.20008 1.74921Z" fill="white"/>
<path d="M1.20008 2.76941L1.37142 3.29673L0.922852 2.97083H1.47731L1.02874 3.29673L1.20008 2.76941Z" fill="white"/>
<path d="M1.20008 3.78967L1.37142 4.317L0.922852 3.99109H1.47731L1.02874 4.317L1.20008 3.78967Z" fill="white"/>
<path d="M1.80018 0.218811L1.97152 0.746136L1.52295 0.420231H2.07741L1.62884 0.746136L1.80018 0.218811Z" fill="white"/>
<path d="M1.80018 1.23907L1.97152 1.7664L1.52295 1.44049H2.07741L1.62884 1.7664L1.80018 1.23907Z" fill="white"/>
<path d="M1.80018 2.25934L1.97152 2.78666L1.52295 2.46076H2.07741L1.62884 2.78666L1.80018 2.25934Z" fill="white"/>
<path d="M1.80018 3.27954L1.97152 3.80687L1.52295 3.48096H2.07741L1.62884 3.80687L1.80018 3.27954Z" fill="white"/>
<path d="M1.80018 4.2998L1.97152 4.82713L1.52295 4.50122H2.07741L1.62884 4.82713L1.80018 4.2998Z" fill="white"/>
<path d="M2.40077 0.728882L2.5721 1.25621L2.12354 0.930302H2.678L2.22943 1.25621L2.40077 0.728882Z" fill="white"/>
<path d="M2.40077 1.74915L2.5721 2.27647L2.12354 1.95057H2.678L2.22943 2.27647L2.40077 1.74915Z" fill="white"/>
<path d="M2.40077 2.76941L2.5721 3.29673L2.12354 2.97083H2.678L2.22943 3.29673L2.40077 2.76941Z" fill="white"/>
<path d="M2.40077 3.78967L2.5721 4.317L2.12354 3.99109H2.678L2.22943 4.317L2.40077 3.78967Z" fill="white"/>
<path d="M2.99891 0.218872L3.17025 0.746197L2.72168 0.420292H3.27614L2.82757 0.746197L2.99891 0.218872Z" fill="white"/>
<path d="M2.99891 1.23907L3.17025 1.7664L2.72168 1.44049H3.27614L2.82757 1.7664L2.99891 1.23907Z" fill="white"/>
<path d="M2.99891 2.25928L3.17025 2.7866L2.72168 2.4607H3.27614L2.82757 2.7866L2.99891 2.25928Z" fill="white"/>
<path d="M2.99891 3.27954L3.17025 3.80687L2.72168 3.48096H3.27614L2.82757 3.80687L2.99891 3.27954Z" fill="white"/>
<path d="M2.99891 4.29987L3.17025 4.82719L2.72168 4.50129H3.27614L2.82757 4.82719L2.99891 4.29987Z" fill="white"/>
<path d="M3.5995 0.728882L3.77083 1.25621L3.32227 0.930302H3.87673L3.42816 1.25621L3.5995 0.728882Z" fill="white"/>
<path d="M3.5995 1.74908L3.77083 2.27641L3.32227 1.9505H3.87673L3.42816 2.27641L3.5995 1.74908Z" fill="white"/>
<path d="M3.5995 2.76929L3.77083 3.29661L3.32227 2.97071H3.87673L3.42816 3.29661L3.5995 2.76929Z" fill="white"/>
<path d="M3.5995 3.78955L3.77083 4.31688L3.32227 3.99097H3.87673L3.42816 4.31688L3.5995 3.78955Z" fill="white"/>
<path d="M4.20008 0.218628L4.37142 0.745953L3.92285 0.420048H4.47731L4.02874 0.745953L4.20008 0.218628Z" fill="white"/>
<path d="M4.20008 1.23895L4.37142 1.76628L3.92285 1.44037H4.47731L4.02874 1.76628L4.20008 1.23895Z" fill="white"/>
<path d="M4.20008 2.25916L4.37142 2.78648L3.92285 2.46058H4.47731L4.02874 2.78648L4.20008 2.25916Z" fill="white"/>
<path d="M4.20008 3.27942L4.37142 3.80674L3.92285 3.48084H4.47731L4.02874 3.80674L4.20008 3.27942Z" fill="white"/>
<path d="M4.20008 4.29968L4.37142 4.82701L3.92285 4.5011H4.47731L4.02874 4.82701L4.20008 4.29968Z" fill="white"/>
<path d="M4.80018 0.72876L4.97152 1.25608L4.52295 0.93018H5.07741L4.62884 1.25608L4.80018 0.72876Z" fill="white"/>
<path d="M4.80018 1.74908L4.97152 2.27641L4.52295 1.9505H5.07741L4.62884 2.27641L4.80018 1.74908Z" fill="white"/>
<path d="M4.80018 2.76929L4.97152 3.29661L4.52295 2.97071H5.07741L4.62884 3.29661L4.80018 2.76929Z" fill="white"/>
<path d="M4.80018 3.78955L4.97152 4.31688L4.52295 3.99097H5.07741L4.62884 4.31688L4.80018 3.78955Z" fill="white"/>
<path d="M5.40077 0.218811L5.5721 0.746136L5.12354 0.420231H5.678L5.22943 0.746136L5.40077 0.218811Z" fill="white"/>
<path d="M5.40077 1.23907L5.5721 1.7664L5.12354 1.44049H5.678L5.22943 1.7664L5.40077 1.23907Z" fill="white"/>
<path d="M5.40077 2.25928L5.5721 2.7866L5.12354 2.4607H5.678L5.22943 2.7866L5.40077 2.25928Z" fill="white"/>
<path d="M5.40077 3.27954L5.5721 3.80687L5.12354 3.48096H5.678L5.22943 3.80687L5.40077 3.27954Z" fill="white"/>
<path d="M5.40077 4.2998L5.5721 4.82713L5.12354 4.50122H5.678L5.22943 4.82713L5.40077 4.2998Z" fill="white"/>
<path d="M6.00086 0.728577L6.1722 1.2559L5.72363 0.929997H6.27809L5.82953 1.2559L6.00086 0.728577Z" fill="white"/>
<path d="M6.00086 1.74884L6.1722 2.27617L5.72363 1.95026H6.27809L5.82953 2.27617L6.00086 1.74884Z" fill="white"/>
<path d="M6.00086 2.76904L6.1722 3.29637L5.72363 2.97046H6.27809L5.82953 3.29637L6.00086 2.76904Z" fill="white"/>
<path d="M6.00086 3.78931L6.1722 4.31663L5.72363 3.99073H6.27809L5.82953 4.31663L6.00086 3.78931Z" fill="white"/>
<path d="M6.5995 0.218811L6.77083 0.746136L6.32227 0.420231H6.87673L6.42816 0.746136L6.5995 0.218811Z" fill="white"/>
<path d="M6.5995 1.23907L6.77083 1.7664L6.32227 1.44049H6.87673L6.42816 1.7664L6.5995 1.23907Z" fill="white"/>
<path d="M6.5995 2.25928L6.77083 2.7866L6.32227 2.4607H6.87673L6.42816 2.7866L6.5995 2.25928Z" fill="white"/>
<path d="M6.5995 3.27954L6.77083 3.80687L6.32227 3.48096H6.87673L6.42816 3.80687L6.5995 3.27954Z" fill="white"/>
<path d="M6.5995 4.29987L6.77083 4.82719L6.32227 4.50129H6.87673L6.42816 4.82719L6.5995 4.29987Z" fill="white"/>
</g>
<defs>
<clipPath id="clip0_30_1297">
<rect width="18" height="12" rx="1.5" fill="white"/>
</clipPath>
</defs>
</svg>
