<svg width="32" height="32" viewBox="0 0 32 32" fill="none" xmlns="http://www.w3.org/2000/svg">
<path fill-rule="evenodd" clip-rule="evenodd" d="M15.9502 2.55469C8.53744 2.55469 2.54492 8.71714 2.54492 16.3409C2.54492 22.4351 6.38453 27.5936 11.7111 29.4194C12.377 29.5566 12.621 29.1227 12.621 28.7577C12.621 28.4381 12.599 27.3426 12.599 26.2012C8.87 27.023 8.09347 24.5577 8.09347 24.5577C7.49419 22.96 6.60624 22.5493 6.60624 22.5493C5.38573 21.7048 6.69515 21.7048 6.69515 21.7048C8.04901 21.7961 8.75942 23.1199 8.75942 23.1199C9.95771 25.2196 11.8886 24.6264 12.6654 24.2611C12.7763 23.3709 13.1316 22.7547 13.5089 22.4124C10.5348 22.0928 7.40556 20.9059 7.40556 15.6104C7.40556 14.104 7.93788 12.8715 8.78137 11.9129C8.64829 11.5706 8.1821 10.1552 8.91473 8.26084C8.91473 8.26084 10.0466 7.89558 12.5988 9.67597C13.6914 9.37419 14.8183 9.22068 15.9502 9.21939C17.0821 9.21939 18.2359 9.37933 19.3014 9.67597C21.8538 7.89558 22.9857 8.26084 22.9857 8.26084C23.7183 10.1552 23.2519 11.5706 23.1188 11.9129C23.9845 12.8715 24.4949 14.104 24.4949 15.6104C24.4949 20.9059 21.3657 22.0698 18.3693 22.4124C18.8577 22.846 19.2792 23.6675 19.2792 24.9687C19.2792 26.8174 19.2572 28.3012 19.2572 28.7575C19.2572 29.1227 19.5014 29.5566 20.1671 29.4196C25.4937 27.5933 29.3333 22.4351 29.3333 16.3409C29.3552 8.71714 23.3408 2.55469 15.9502 2.55469Z" fill="#0C151D"/>
</svg>
