<svg width="32" height="32" viewBox="0 0 32 32" fill="none" xmlns="http://www.w3.org/2000/svg">
<path fill-rule="evenodd" clip-rule="evenodd" d="M15.9502 2.55475C8.53744 2.55475 2.54492 8.71721 2.54492 16.341C2.54492 22.4351 6.38453 27.5937 11.7111 29.4194C12.377 29.5567 12.621 29.1228 12.621 28.7578C12.621 28.4382 12.599 27.3427 12.599 26.2012C8.87 27.0231 8.09347 24.5578 8.09347 24.5578C7.49419 22.96 6.60624 22.5494 6.60624 22.5494C5.38573 21.7049 6.69515 21.7049 6.69515 21.7049C8.04901 21.7962 8.75942 23.12 8.75942 23.12C9.95771 25.2197 11.8886 24.6264 12.6654 24.2612C12.7763 23.371 13.1316 22.7547 13.5089 22.4124C10.5348 22.0928 7.40556 20.906 7.40556 15.6105C7.40556 14.104 7.93788 12.8715 8.78137 11.913C8.64829 11.5707 8.1821 10.1553 8.91473 8.2609C8.91473 8.2609 10.0466 7.89564 12.5988 9.67603C13.6914 9.37425 14.8183 9.22074 15.9502 9.21945C17.0821 9.21945 18.2359 9.37939 19.3014 9.67603C21.8538 7.89564 22.9857 8.2609 22.9857 8.2609C23.7183 10.1553 23.2519 11.5707 23.1188 11.913C23.9845 12.8715 24.4949 14.104 24.4949 15.6105C24.4949 20.906 21.3657 22.0699 18.3693 22.4124C18.8577 22.846 19.2792 23.6676 19.2792 24.9687C19.2792 26.8175 19.2572 28.3012 19.2572 28.7575C19.2572 29.1228 19.5014 29.5567 20.1671 29.4197C25.4937 27.5934 29.3333 22.4351 29.3333 16.341C29.3552 8.71721 23.3408 2.55475 15.9502 2.55475Z" fill="white"/>
</svg>
