<svg width="24" height="24" viewBox="0 0 24 24" fill="none" xmlns="http://www.w3.org/2000/svg">
<path d="M9.2 16.8L11.05 14.95C11.45 14.55 11.44 13.91 11.04 13.52C10.99 13.47 10.9375 13.42 10.885 13.37C10.8325 13.32 10.78 13.27 10.73 13.22C10.21 12.69 9.73 12.16 9.28 11.64C8.84 11.12 8.53 10.69 8.35 10.36C8.33917 10.3275 8.32541 10.295 8.31031 10.2594C8.29752 10.2292 8.28376 10.1967 8.27 10.16C8.25 10.08 8.24 10.01 8.24 9.93C8.24 9.77 8.29 9.64 8.4 9.53L9.16 8.74C9.4 8.5 9.59 8.26 9.72 8.03C9.86 7.8 9.93 7.56 9.93 7.32C9.93 7.13 9.88 6.92 9.79 6.71C9.7 6.49 9.57 6.26 9.39 6.01L7.07 2.74C6.89 2.48 6.66 2.3 6.4 2.18C6.15 2.06 5.87 2 5.59 2C4.85 2 4.15 2.31 3.51 2.94C2.98 3.44 2.6 4 2.36 4.61C2.12 5.21 2 5.86 2 6.54C2 7.58 2.24 8.67 2.71 9.81C3.19 10.94 3.85 12.08 4.67 13.22C5.5 14.36 6.43 15.45 7.46 16.49C7.515 16.545 7.57 16.5975 7.625 16.65C7.68 16.7025 7.735 16.755 7.79 16.81C8.19 17.19 8.81 17.19 9.2 16.8Z" fill="#6D7377"/>
<path d="M21.8201 19.18C21.9201 18.9 21.9701 18.61 21.9701 18.33C21.9701 18.05 21.9101 17.8 21.8101 17.55C21.7001 17.3 21.5201 17.09 21.2601 16.91L17.9501 14.56C17.7001 14.39 17.4701 14.26 17.2501 14.17C17.0301 14.08 16.8301 14.04 16.6401 14.04C16.3901 14.04 16.1601 14.11 15.9301 14.25C15.7001 14.37 15.4601 14.56 15.2101 14.81L14.4501 15.56C14.3401 15.67 14.2101 15.73 14.0401 15.73C13.9501 15.73 13.8701 15.72 13.7901 15.69C13.758 15.6763 13.728 15.6625 13.7001 15.6497C13.6672 15.6346 13.6372 15.6209 13.6101 15.61C13.4001 15.5 13.1501 15.34 12.8701 15.13L9.6001 18.4C9.9701 18.71 10.3601 19 10.7501 19.29C11.8901 20.12 13.0401 20.78 14.1901 21.27C15.3401 21.76 16.4301 22 17.4501 22C18.1401 22 18.7801 21.87 19.3701 21.63C19.3751 21.63 19.3801 21.6275 19.3851 21.625C19.3901 21.6225 19.3951 21.62 19.4001 21.62C20.0101 21.37 20.5501 20.98 21.0401 20.44C21.3301 20.12 21.5501 19.78 21.7201 19.42C21.7601 19.34 21.7901 19.26 21.8201 19.18Z" fill="#6D7377"/>
</svg>
